<svg height="60" viewBox="0 0 764 60" width="764" xmlns="http://www.w3.org/2000/svg"><g fill="none" fill-rule="evenodd"><path d="m764 22-22-22-22 22zm-44 16 22 22 22-22z" fill="#808080" fill-rule="nonzero"/><path d="m567.292436 60c-3.139813-5.007949-5.265696-10.2376906-6.377713-15.6893819s-1.210135-10.8082146-.294356-16.0697306 2.829074-10.316933 5.739942-15.1664026c2.910868-4.84946953 6.819223-9.20758759 11.72518-13.0744849l7.555138 4.46909667c1.308255.82409287 1.896961 1.8383458 1.766136 3.04278923-.130826 1.20444342-.556002 2.15530554-1.275543 2.8526149-1.373668 1.584794-2.681904 3.6766906-3.924747 6.2757528-1.242842 2.5990621-2.109548 5.5150393-2.600144 8.748019s-.441537 6.6877787.147178 10.3645008c.588715 3.676722 2.06048 7.3533889 4.41534 11.0301109 1.17743 1.838361 1.504489 3.4389789.981186 4.8019018-.523302 1.3629228-1.602596 2.3296326-3.237916 2.9001584zm32.575397 0c-3.139813-5.007949-5.265696-10.2376906-6.377713-15.6893819s-1.210135-10.8082146-.294356-16.0697306 2.829074-10.316933 5.739942-15.1664026c2.910868-4.84946953 6.819223-9.20758759 11.725181-13.0744849l7.555137 4.46909667c1.308255.82409287 1.896961 1.8383458 1.766136 3.04278923-.130826 1.20444342-.556002 2.15530554-1.275543 2.8526149-1.373668 1.584794-2.681904 3.6766906-3.924746 6.2757528-1.242843 2.5990621-2.109549 5.5150393-2.600145 8.748019s-.441537 6.6877787.147178 10.3645008c.588715 3.676722 2.06048 7.3533889 4.41534 11.0301109 1.17743 1.838361 1.504489 3.4389789.981187 4.8019018-.523303 1.3629228-1.602597 2.3296326-3.237916 2.9001584zm60.288685-60c3.137895 5.00794897 5.26248 10.2218429 6.373818 15.6418384 1.111338 5.4199954 1.209395 10.7765187.294176 16.0697305-.91522 5.2932119-2.827346 10.3644766-5.736436 15.2139462-2.90909 4.8494695-6.815058 9.2075876-11.718019 13.0744849l-7.648581-4.4690967c-.653729-.3803505-1.111331-.8399339-1.372823-1.3787638-.261491-.53883-.375892-1.0776519-.343205-1.6164818.032686-.53883.16343-1.0618041.392235-1.5689382s.539321-.9508697.931558-1.3312203c1.372829-1.584794 2.680266-3.6766906 3.922349-6.2757528 1.242084-2.5990621 2.10826-5.5150393 2.598557-8.748019.490296-3.2329797.424924-6.6877787-.196118-10.3645008-.621042-3.676722-2.108251-7.3533889-4.461672-11.0301109-1.111338-1.838361-1.421854-3.43897893-.931558-4.80190175s1.552588-2.32963265 3.186909-2.90015848zm32.5555 0c3.137895 5.00794897 5.26248 10.2218429 6.373818 15.6418384 1.111338 5.4199954 1.209395 10.7765187.294176 16.0697305-.915219 5.2932119-2.827346 10.3644766-5.736436 15.2139462-2.90909 4.8494695-6.815058 9.2075876-11.718019 13.0744849l-7.648581-4.4690967c-.653728-.3803505-1.111331-.8399339-1.372823-1.3787638-.261491-.53883-.375891-1.0776519-.343205-1.6164818.032686-.53883.16343-1.0618041.392235-1.5689382s.539321-.9508697.931558-1.3312203c1.372829-1.584794 2.680266-3.6766906 3.922349-6.2757528 1.242084-2.5990621 2.108261-5.5150393 2.598557-8.748019s.424924-6.6877787-.196118-10.3645008c-.621042-3.676722-2.108251-7.3533889-4.461672-11.0301109-1.111338-1.838361-1.421854-3.43897893-.931558-4.80190175s1.552588-2.32963265 3.186909-2.90015848z" fill="#f5f5f5"/><g transform="translate(480)"><circle cx="35.25" cy="24.75" r="22.75" stroke="#fff" stroke-width="4"/><g fill="#fff"><path d="m-.5257576 47.6672619h21.75c1.0355339 0 1.875.8394661 1.875 1.875 0 1.0355339-.8394661 1.875-1.875 1.875h-21.75c-1.0355339 0-1.875-.8394661-1.875-1.875 0-1.0355339.8394661-1.875 1.875-1.875z" transform="matrix(-.70710678 .70710678 .70710678 .70710678 -17.364421 7.192579)"/><path d="m24.9742424 22.9172619h20.25c1.0355339 0 1.875.8394661 1.875 1.875 0 1.0355339-.8394661 1.875-1.875 1.875h-20.25c-1.0355339 0-1.875-.8394661-1.875-1.875 0-1.0355339.8394661-1.875 1.875-1.875z" transform="matrix(-1 0 0 1 70.198 0)"/><path d="m24.9742424 22.9172619h20.25c1.0355339 0 1.875.8394661 1.875 1.875 0 1.0355339-.8394661 1.875-1.875 1.875h-20.25c-1.0355339 0-1.875-.8394661-1.875-1.875 0-1.0355339.8394661-1.875 1.875-1.875z" transform="matrix(0 1 1 0 10.307 -10.307)"/></g></g><g fill="#fff" transform="translate(320)"><rect height="7.692" rx="2" width="30.769" x="27.308" y="1.923"/><rect height="7.692" rx="2" width="56.923" x="1.154" y="51.154"/><rect height="7.692" rx="2" width="18.462" x="1.154" y="1.923"/><path d="m40.8461538 13.4615385h26.7692308c1.1045695 0 2 .8954305 2 2v3.6923077c0 1.1045695-.8954305 2-2 2h-26.7692308c-1.1045695 0-2-.8954305-2-2v-3.6923077c0-1.1045695.8954305-2 2-2z" transform="matrix(0 1 -1 0 71.538 -36.922)"/><path d="m47 45.7692308h14.4615385c1.1045695 0 2 .8954305 2 2v3.6923077c0 1.1045695-.8954305 2-2 2h-14.4615385c-1.1045695 0-2-.8954305-2-2v-3.6923077c0-1.1045695.8954305-2 2-2z" transform="matrix(0 1 -1 0 103.845 -4.615)"/><path d="m-21.4615385 26.5384615h52.923077c1.1045695 0 2 .8954305 2 2v3.6923077c0 1.1045695-.8954305 2-2 2h-52.923077c-1.1045695 0-2-.8954305-2-2v-3.6923077c0-1.1045695.8954305-2 2-2z" transform="matrix(0 1 -1 0 35.385 25.385)"/><path d="m13.7797758 18.2202242h48.3076923c1.1045695 0 2 .8954305 2 2v3.6923077c0 1.1045695-.8954305 2-2 2h-48.3076923c-1.1045695 0-2-.8954305-2-2v-3.6923077c0-1.1045695.8954305-2 2-2z" transform="matrix(-.70710678 .70710678 .70710678 .70710678 49.153114 -20.359886)"/></g><g fill="#fff" transform="translate(400)"><path d="m-5.5 26.25h71c1.1045695 0 2 .8954305 2 2v3.5c0 1.1045695-.8954305 2-2 2h-71c-1.1045695 0-2-.8954305-2-2v-3.5c0-1.1045695.8954305-2 2-2z" transform="matrix(.70710678 .70710678 -.70710678 .70710678 30 -12.426407)"/><path d="m-5.5 26.25h71c1.1045695 0 2 .8954305 2 2v3.5c0 1.1045695-.8954305 2-2 2h-71c-1.1045695 0-2-.8954305-2-2v-3.5c0-1.1045695.8954305-2 2-2z" transform="matrix(-.70710678 .70710678 .70710678 .70710678 29.999712 -12.426288)"/></g><g fill="#de2121" transform="translate(240 7)"><path d="m2 28.9090909h23.2727273c1.1045695 0 2 .8954305 2 2v4.7272727c0 1.1045695-.8954305 2-2 2h-23.2727273c-1.1045695 0-2-.8954305-2-2v-4.7272727c0-1.1045695.8954305-2 2-2z" transform="matrix(.70710678 .70710678 -.70710678 .70710678 27.521456 .103328)"/><path d="m11.8181818 19.0909091h50.5454546c1.1045695 0 2 .8954305 2 2v4.7272727c0 1.1045695-.8954305 2-2 2h-50.5454546c-1.1045695 0-1.99999998-.8954305-1.99999998-2v-4.7272727c0-1.1045695.89543048-2 1.99999998-2z" transform="matrix(-.70710678 .70710678 .70710678 .70710678 46.732687 -19.357313)"/></g><circle cx="30" cy="30" fill="#0077b5" r="30"/><g fill="#fff" transform="translate(14 15)"><path d="m11.4285714 9.14285714h6.3257143v3.24228576h.0902857c.88-1.5782858 3.0342857-3.24228576 6.2445715-3.24228576 6.6765714 0 7.9108571 4.15657146 7.9108571 9.56228576v11.0091428h-6.5931429v-9.76c0-2.328-.048-5.3222857-3.4297142-5.3222857-3.4342858 0-3.9577143 2.5348571-3.9577143 5.1531429v9.9291428h-6.5908572z"/><path d="m0 9.143h6.857v20.571h-6.857z"/><path d="m6.85714286 3.42857143c0 1.89371428-1.53485715 3.42857143-3.42857143 3.42857143-1.89371429 0-3.42857143-1.53485715-3.42857143-3.42857143 0-1.89371429 1.53485714-3.42857143 3.42857143-3.42857143 1.89371428 0 3.42857143 1.53485714 3.42857143 3.42857143z"/></g><path d="m30 .740625c-16.5675 0-30 13.430625-30 30 0 13.254375 8.596875 24.500625 20.51625 28.46625 1.5.2775 2.05125-.650625 2.05125-1.44375 0-.714375-.028125-3.07875-.04125-5.585625-8.3475 1.815-10.108125-3.54-10.108125-3.54-1.365-3.466875-3.33-4.389375-3.33-4.389375-2.7225-1.861875.20625-1.824375.20625-1.824375 3.01125.211875 4.5975 3.091875 4.5975 3.091875 2.675625 4.58625 7.018125 3.260625 8.73 2.49375.268125-1.93875 1.04625-3.2625 1.905-4.0125-6.66375-.7575-13.66875-3.331875-13.66875-14.825625 0-3.275625 1.171875-5.95125 3.091875-8.053125-.31125-.755625-1.33875-3.80625.290625-7.93875 0 0 2.52-.80625 8.251875 3.075 2.3925-.665625 4.959375-.9975 7.509375-1.010625 2.548125.01125 5.116875.345 7.515 1.010625 5.72625-3.88125 8.240625-3.075 8.240625-3.075 1.633125 4.1325.605625 7.183125.294375 7.93875 1.92375 2.1 3.088125 4.7775 3.088125 8.053125 0 11.521875-7.018125 14.05875-13.69875 14.803125 1.07625.931875 2.034375 2.75625 2.034375 5.555625 0 4.014375-.035625 7.245-.035625 8.233125 0 .79875.54 1.734375 2.060625 1.44 11.91375-3.97125 20.499375-15.211875 20.499375-28.4625 0-16.569375-13.4325-30-30-30z" fill="#000" transform="translate(80)"/><g transform="translate(160)"><circle cx="30" cy="30" fill="#63a6ea" r="30"/><path d="m48.006 20.2671515c-1.2484237.5578063-2.5967214.9296772-4.0045183 1.0954254 1.4407341-.863803 2.5435969-2.2312254 3.0674036-3.857895-1.3482976.7968662-2.8421561 1.3812348-4.4295136 1.6936064-1.274986-1.3546726-3.087591-2.1982883-5.0935689-2.1982883-3.85152 0-6.9731106 3.1215906-6.9731106 6.9731106 0 .543994.0594994 1.0752381.1795606 1.5873575-5.7969361-.2921843-10.9372544-3.0684662-14.376529-7.2907946-.5981809 1.0295511-.9424271 2.2312254-.9424271 3.5062113 0 2.4171609 1.2282365 4.5548873 3.1014033 5.8043735-1.1421749-.0329371-2.2174131-.3516836-3.1609026-.8701779v.0860616c0 3.3797752 2.4044109 6.2028066 5.5982507 6.8392371-.5843685.1593732-1.2016742.2454347-1.8391672.2454347-.4515575 0-.8829278-.0467494-1.314298-.1264361.8903652 2.7688445 3.4668993 4.7875722 6.5141157 4.8481341-2.3905987 1.8721043-5.3921281 2.9887795-8.6656545 2.9887795-.5641813 0-1.1156127-.0329371-1.6670441-.0998739 3.0950284 1.9857906 6.7595505 3.1343405 10.6981945 3.1343405 12.829546 0 19.8483436-10.6312578 19.8483436-19.8483437 0-.3049341-.0063749-.6045558-.0201872-.903115 1.3610475-.9764267 2.5435969-2.2046632 3.4796491-3.6060852z" fill="#fff"/></g></g></svg>