<svg height="32" viewBox="0 0 314 32" width="314" xmlns="http://www.w3.org/2000/svg"><g fill="none"><path d="m17 0h-14c-1.65 0-3 1.35-3 3v26c0 1.65 1.35 3 3 3h14c1.65 0 3-1.35 3-3v-26c0-1.65-1.35-3-3-3zm-11 1.5h8v1h-8zm4 28.5c-1.105 0-2-.895-2-2s.895-2 2-2 2 .895 2 2-.895 2-2 2zm8-6h-16v-20h16z" fill="#000" transform="translate(252)"/><path d="m30.662 9.004c-2.776-.398-5.73-.688-8.814-.85l5.152-5.152-2-2-7.018 7.018c-.656-.012-1.318-.018-1.982-.018l-8-8-2 2 6.068 6.068c-3.778.132-7.386.454-10.73.934-.86 3.366-1.338 7.086-1.338 10.996s.478 7.63 1.338 10.996c4.488.646 9.448 1.004 14.662 1.004s10.174-.358 14.662-1.004c.86-3.366 1.338-7.086 1.338-10.996s-.478-7.63-1.338-10.996zm-3.666 18.328c-3.366.43-7.086.668-10.996.668s-7.63-.238-10.996-.668c-.646-2.244-1.004-4.724-1.004-7.332s.358-5.086 1.004-7.332c3.366-.43 7.086-.668 10.996-.668s7.63.238 10.996.668c.646 2.244 1.004 4.724 1.004 7.332s-.358 5.086-1.004 7.332z" fill="#000" transform="translate(282)"/><path d="m16 0c-8.838 0-16 7.162-16 16s7.162 16 16 16 16-7.162 16-16-7.162-16-16-16zm-4 24c-4.424 0-8-3.574-8-8s3.576-8 8-8c2.162 0 3.968.788 5.362 2.094l-2.176 2.088c-.594-.568-1.632-1.232-3.188-1.232-2.732 0-4.962 2.262-4.962 5.05s2.232 5.05 4.962 5.05c3.168 0 4.356-2.274 4.538-3.45h-4.538v-2.744h7.556c.068.4.126.8.126 1.326 0 4.574-3.062 7.818-7.682 7.818zm14-8v2h-2v-2h-2v-2h2v-2h2v2h2v2z" fill="#ff5858" transform="translate(210)"/><path d="m29 0h-26c-1.65 0-3 1.35-3 3v26c0 1.65 1.35 3 3 3h13v-14h-4v-4h4v-2c0-3.306 2.694-6 6-6h4v4h-4c-1.1 0-2 .9-2 2v2h6l-1 4h-5v14h9c1.65 0 3-1.35 3-3v-26c0-1.65-1.35-3-3-3z" fill="#4670ff" transform="translate(168)"/><path d="m29 0h-26c-1.65 0-3 1.35-3 3v26c0 1.65 1.35 3 3 3h26c1.65 0 3-1.35 3-3v-26c0-1.65-1.35-3-3-3zm-7 5c0-.55.45-1 1-1h4c.55 0 1 .45 1 1v4c0 .55-.45 1-1 1h-4c-.55 0-1-.45-1-1zm-6 5c3.312 0 6 2.688 6 6s-2.688 6-6 6-6-2.688-6-6 2.688-6 6-6zm12 17c0 .55-.45 1-1 1h-22c-.55 0-1-.45-1-1v-13h2.2c-.132.644-.2 1.312-.2 2 0 5.524 4.474 10 10 10s10-4.476 10-10c0-.688-.068-1.356-.2-2h2.2z" fill="#bc14c3" transform="translate(126)"/><path d="m32 3.076c-1.1403636.526-2.3699394.876-3.6538182 1.032 1.3149091-.812 2.3214546-2.1 2.8004849-3.632-1.2295758.75-2.5949091 1.3-4.041697 1.594-1.1636364-1.276-2.8179394-2.068-4.6487273-2.068-3.5161212 0-6.3631515 2.938-6.3631515 6.562 0 .512.054303 1.012.1629091 1.494-5.2906667-.276-9.98206061-2.888-13.12193939-6.862-.5449697.968-.86109091 2.1-.86109091 3.3 0 2.276 1.12096969 4.288 2.82957575 5.462-1.04339393-.032-2.02472727-.332-2.88581818-.818v.082c0 3.182 2.19345455 5.838 5.10836364 6.438-.53333333.15-1.09769697.232-1.67951515.232-.41115152 0-.80678788-.044-1.20048485-.118.81260606 2.606 3.16315151 4.506 5.94618179 4.562-2.18181815 1.762-4.92218179 2.812-7.90884846 2.812-.51587879 0-1.01818182-.032-1.52048485-.094 2.82375758 1.868 6.16921213 2.95 9.76290911 2.95 11.7081212 0 18.1158788-10.006 18.1158788-18.682 0-.288-.0058182-.568-.0174546-.85 1.2431515-.918 2.3214546-2.076 3.1747879-3.394z" fill="#428dff" transform="translate(84 4)"/><path d="m30.7219394 5.6s-.3025455-2.206-1.2353939-3.174c-1.181091-1.274-2.5037576-1.282-3.1088485-1.356-4.3384243-.326-10.8547879-.326-10.8547879-.326h-.0116364s-6.51442422 0-10.85478785.326c-.6070303.076-1.92775758.082-3.10884849 1.356-.93284848.968-1.22957575 3.174-1.22957575 3.174s-.30836364 2.588-.30836364 5.182v2.426c0 2.588.30836364 5.182.30836364 5.182s.30254545 2.206 1.22957575 3.176c1.18109091 1.274 2.73260606 1.232 3.4249697 1.368 2.48436364.244 10.55224244.318 10.55224244.318s6.5221818-.012 10.860606-.332c.6070303-.074 1.9277576-.082 3.1088485-1.356.9328485-.968 1.235394-3.176 1.235394-3.176s.3083636-2.588.3083636-5.182v-2.426c-.0058182-2.588-.3141818-5.182-.3141818-5.182zm-18.4126061 10.55v-8.994l8.3820606 4.512z" fill="#f00" transform="translate(42 4)"/><path d="m16 .15771429c-8.74971429 0-15.84228571 7.09257142-15.84228571 15.84228571 0 6.7154286 4.17828571 12.4434286 10.07085711 14.7497143-.1348571-1.2502857-.26514283-3.1794286.0571429-4.544.2857143-1.2365714 1.8582857-7.872 1.8582857-7.872s-.4708571-.9508572-.4708571-2.3497143c0-2.2011429 1.2777142-3.8491429 2.864-3.8491429 1.3508571 0 2.0068571 1.0148572 2.0068571 2.2285715 0 1.3577143-.864 3.392-1.3142857 5.2708571-.3794286 1.5794286.7862857 2.864 2.3428571 2.864 2.8137143 0 4.9782857-2.9714286 4.9782857-7.2571428 0-3.792-2.7291428-6.44342861-6.6148571-6.44342861-4.5074286 0-7.14971429 3.37828571-7.14971429 6.87771431 0 1.3645714.52114286 2.8205714 1.17942858 3.6137143.12800001.1577142.15085711.2925714.10742861.4571428-.1211429.5005714-.38628576 1.5794286-.44342861 1.7988572-.07085715.2925714-.22857143.3497142-.528.2148571-1.97942858-.9211429-3.21371429-3.8148571-3.21371429-6.1348571 0-5.0011429 3.62742857-9.58628576 10.464-9.58628576 5.4925714 0 9.7645714 3.91314286 9.7645714 9.14971426 0 5.4582857-3.4422857 9.8582857-8.2217143 9.8582857-1.6068571 0-3.1131428-.8365714-3.6297142-1.8217142 0 0-.7931429 3.0217142-.9851429 3.7645714-.3565714 1.3782857-1.3211429 3.0994286-1.9702857 4.1508571 1.4857143.4571429 3.056.7062857 4.6925714.7062857 8.7497143 0 15.8422857-7.0925714 15.8422857-15.8422857 0-8.7565714-7.0925714-15.84914283-15.8422857-15.84914283z" fill="#e92d2d"/></g></svg>