<svg height="60" viewBox="0 0 200 60" width="200" xmlns="http://www.w3.org/2000/svg"><g fill="none" fill-rule="evenodd"><circle cx="30" cy="30" fill="#0077b5" r="30"/><g fill="#fff" transform="translate(14 15)"><path d="m11.4285714 9.14285714h6.3257143v3.24228576h.0902857c.88-1.5782858 3.0342857-3.24228576 6.2445715-3.24228576 6.6765714 0 7.9108571 4.15657146 7.9108571 9.56228576v11.0091428h-6.5931429v-9.76c0-2.328-.048-5.3222857-3.4297142-5.3222857-3.4342858 0-3.9577143 2.5348571-3.9577143 5.1531429v9.9291428h-6.5908572z"/><path d="m0 9.14285714h6.85714286v20.57142856h-6.85714286z"/><path d="m6.85714286 3.42857143c0 1.89371428-1.53485715 3.42857143-3.42857143 3.42857143-1.89371429 0-3.42857143-1.53485715-3.42857143-3.42857143 0-1.89371429 1.53485714-3.42857143 3.42857143-3.42857143 1.89371428 0 3.42857143 1.53485714 3.42857143 3.42857143z"/></g><path d="m30 .740625c-16.5675 0-30 13.430625-30 30 0 13.254375 8.596875 24.500625 20.51625 28.46625 1.5.2775 2.05125-.650625 2.05125-1.44375 0-.714375-.028125-3.07875-.04125-5.585625-8.3475 1.815-10.108125-3.54-10.108125-3.54-1.365-3.466875-3.33-4.389375-3.33-4.389375-2.7225-1.861875.20625-1.824375.20625-1.824375 3.01125.211875 4.5975 3.091875 4.5975 3.091875 2.675625 4.58625 7.018125 3.260625 8.73 2.49375.268125-1.93875 1.04625-3.2625 1.905-4.0125-6.66375-.7575-13.66875-3.331875-13.66875-14.825625 0-3.275625 1.171875-5.95125 3.091875-8.053125-.31125-.755625-1.33875-3.80625.290625-7.93875 0 0 2.52-.80625 8.251875 3.075 2.3925-.665625 4.959375-.9975 7.509375-1.010625 2.548125.01125 5.116875.345 7.515 1.010625 5.72625-3.88125 8.240625-3.075 8.240625-3.075 1.633125 4.1325.605625 7.183125.294375 7.93875 1.92375 2.1 3.088125 4.7775 3.088125 8.053125 0 11.521875-7.018125 14.05875-13.69875 14.803125 1.07625.931875 2.034375 2.75625 2.034375 5.555625 0 4.014375-.035625 7.245-.035625 8.233125 0 .79875.54 1.734375 2.060625 1.44 11.91375-3.97125 20.499375-15.211875 20.499375-28.4625 0-16.569375-13.4325-30-30-30z" fill="#000" transform="translate(70)"/><g transform="translate(140)"><circle cx="30" cy="30" fill="#63a6ea" r="30"/><path d="m48.006 20.2671515c-1.2484237.5578063-2.5967214.9296772-4.0045183 1.0954254 1.4407341-.863803 2.5435969-2.2312254 3.0674036-3.857895-1.3482976.7968662-2.8421561 1.3812348-4.4295136 1.6936064-1.274986-1.3546726-3.087591-2.1982883-5.0935689-2.1982883-3.85152 0-6.9731106 3.1215906-6.9731106 6.9731106 0 .543994.0594994 1.0752381.1795606 1.5873575-5.7969361-.2921843-10.9372544-3.0684662-14.376529-7.2907946-.5981809 1.0295511-.9424271 2.2312254-.9424271 3.5062113 0 2.4171609 1.2282365 4.5548873 3.1014033 5.8043735-1.1421749-.0329371-2.2174131-.3516836-3.1609026-.8701779v.0860616c0 3.3797752 2.4044109 6.2028066 5.5982507 6.8392371-.5843685.1593732-1.2016742.2454347-1.8391672.2454347-.4515575 0-.8829278-.0467494-1.314298-.1264361.8903652 2.7688445 3.4668993 4.7875722 6.5141157 4.8481341-2.3905987 1.8721043-5.3921281 2.9887795-8.6656545 2.9887795-.5641813 0-1.1156127-.0329371-1.6670441-.0998739 3.0950284 1.9857906 6.7595505 3.1343405 10.6981945 3.1343405 12.829546 0 19.8483436-10.6312578 19.8483436-19.8483437 0-.3049341-.0063749-.6045558-.0201872-.903115 1.3610475-.9764267 2.5435969-2.2046632 3.4796491-3.6060852z" fill="#fff"/></g></g></svg>